<svg width="689.71" height="261.41" data-name="Layer 1" version="1.1" viewBox="0 0 689.71 261.41" xmlns="http://www.w3.org/2000/svg">
 <title>donut_love</title>
 <g transform="translate(-100.76 -312.48)" fill="#edf6ff">
  <circle cx="726.26" cy="504.18" r="42.012"/>
  <rect transform="rotate(169.74)" x="-643.98" y="-681.32" width="12.763" height="22.867"/>
  <rect transform="rotate(169.74)" x="-618.45" y="-681.32" width="12.763" height="22.867"/>
  <ellipse transform="rotate(-40.261)" cx="185.91" cy="896.82" rx="10.636" ry="3.9885"/>
  <ellipse transform="rotate(-40.261)" cx="207.55" cy="909.32" rx="10.636" ry="3.9885"/>
 </g>
 <circle cx="622.56" cy="181.42" r="14.359" fill="#00254d"/>
 <circle cx="616.66" cy="176.27" r="4.7862" fill="#edf6ff"/>
 <path d="m658.64 145.99c0.63179-15.554-12.773-28.728-29.941-29.425s-31.597 11.346-32.229 26.9 11.302 19.087 28.47 19.785 33.068-1.7059 33.7-17.26z" fill="#b7d9f8"/>
 <ellipse transform="rotate(-77.09)" cx="-48.307" cy="613" rx="6.5945" ry="21.006" fill="#edf6ff"/>
 <ellipse transform="rotate(-77.09)" cx="-43.247" cy="696.45" rx="6.5945" ry="21.006" fill="#edf6ff"/>
 <path d="m637.04 208.25a9.5726 9.5726 0 1 1-18.839 3.4103c-0.94174-5.2022 3.0804-7.043 8.2826-7.9847s9.6144-0.62777 10.556 4.5744z" fill="#00254d"/>
 <g transform="translate(-134.76 -312.48)" fill="#edf6ff">
  <ellipse transform="rotate(-69.082)" cx="-245.88" cy="353.85" rx="21.534" ry="6.7601"/>
  <circle cx="217.65" cy="512.28" r="43.067"/>
  <rect x="198.02" y="546.08" width="13.084" height="23.442"/>
  <rect x="224.19" y="546.08" width="13.084" height="23.442"/>
  <ellipse cx="208.93" cy="569.8" rx="10.903" ry="4.0887"/>
  <ellipse cx="235.09" cy="569.25" rx="10.903" ry="4.0887"/>
 </g>
 <circle cx="83.982" cy="188.9" r="14.719" fill="#00254d"/>
 <circle cx="83.982" cy="188.9" r="4.9064" fill="#edf6ff"/>
 <path d="m41.112 159.75c-3.4775-15.574 7.6386-31.31 24.829-35.149s33.944 5.6751 37.422 21.249c3.478 15.574-7.9149 21.318-25.105 25.156s-33.668 4.3178-37.145-11.256z" fill="#b7d9f8"/>
 <g transform="translate(-134.76 -312.48)" fill="#edf6ff">
  <circle cx="202.93" cy="388.53" r="43.067"/>
  <rect x="183.3" y="422.33" width="13.084" height="23.442"/>
  <rect x="209.47" y="422.33" width="13.084" height="23.442"/>
  <ellipse cx="194.21" cy="446.05" rx="10.903" ry="4.0887"/>
  <ellipse cx="220.37" cy="445.5" rx="10.903" ry="4.0887"/>
 </g>
 <circle cx="69.262" cy="65.15" r="14.719" fill="#00254d"/>
 <circle cx="69.262" cy="65.15" r="4.9064" fill="#edf6ff"/>
 <path d="m26.392 36c-3.4775-15.574 7.6386-31.31 24.829-35.149 17.19-3.839 33.944 5.6751 37.422 21.249 3.478 15.574-7.9149 21.318-25.105 25.156s-33.668 4.3177-37.145-11.256z" fill="#b7d9f8"/>
 <ellipse transform="rotate(-64.626)" cx="-42.229" cy="41.8" rx="6.7601" ry="21.534" fill="#edf6ff"/>
 <path d="m47.022 91.59c0 4.2151 10.853 12.539 22.897 12.539s23.335-11.867 23.335-16.082-11.292 0.81774-23.335 0.81774-22.897-1.4894-22.897 2.7258z" fill="#00254d"/>
</svg>
