<svg width="500" height="499.99" version="1.1" viewBox="0 0 500 499.99" xmlns="http://www.w3.org/2000/svg">
 <path d="m396.91 47.716 2.631 53.063c43.019 47.524 59.999 114.83 38.585 178.09-31.966 94.427-137.37 144.06-235.43 110.87s-151.64-136.65-119.67-231.08c21.485-63.467 76.148-106.7 139.46-118.15l34.205-40.414c-106.72-2.8892-207.4 63.351-243.42 169.76-44.26 130.74 25.849 272.62 156.59 316.88 130.74 44.261 272.62-25.849 316.88-156.59 35.965-106.24-3.587-219.83-89.826-282.42z" clip-rule="evenodd" fill="#222" fill-rule="evenodd"/>
 <path d="m335.62 204.29-1.811-74.18-1.453-42.685-0.983-36.98s0.205-17.832-0.417-22.022c-0.131-0.882-0.408-1.6-0.738-2.226-0.041-0.088-0.08-0.176-0.125-0.262-0.047-0.08-0.093-0.154-0.142-0.229-0.684-1.177-1.759-2.133-3.15-2.604-1.423-0.482-2.895-0.363-4.173 0.189-0.027 0.01-0.052 0.019-0.079 0.03-0.152 0.068-0.297 0.145-0.443 0.226-0.606 0.295-1.222 0.677-1.825 1.262-3.04 2.95-13.709 17.24-13.709 17.24l-23.244 28.778-27.083 33.025-46.499 57.826s-21.338 26.631-16.623 59.411 29.085 48.749 47.991 55.15c18.906 6.4 47.965 8.518 71.623-14.657 23.656-23.176 22.883-57.292 22.883-57.292z" clip-rule="evenodd" fill="#222" fill-rule="evenodd"/>
</svg>
