<svg version="1.1" viewBox="0 0 1280 256" xmlns="http://www.w3.org/2000/svg">
 <title>Logo FreshRSS</title>
 <circle cx="128" cy="128" r="33" fill="#0062BE"/>
 <g fill="none" stroke="#0062BE" stroke-width="24">
  <g stroke-opacity=".3">
   <path d="m12 128a116 116 0 1 1 116 116"/>
   <path d="m54 128a74 74 0 1 1 74 74"/>
  </g>
  <path d="m128 12a116 116 0 0 1 116 116"/>
  <path d="m128 54a74 74 0 0 1 74 74"/>
 </g>
 <g fill="#0062bd" font-family="'Open Sans'" font-size="213" font-weight="600" stroke-width="0">
  <desc>FreshRSS</desc>
  <path d="m353.72 206h-24.649v-152.05h85.803v21.009h-61.154v47.53h57.306v21.113h-57.306v62.402z"/>
  <path d="m498.39 88.892q7.3843 0 12.168 1.04l-2.3921 22.777q-5.2002-1.248-10.816-1.248-14.665 0-23.817 9.5684-9.0483 9.5684-9.0483 24.857v60.114h-24.441v-115.03h19.137l3.2241 20.281h1.248q5.7202-10.296 14.873-16.329 9.2563-6.0322 19.865-6.0322z"/>
  <path d="m582.22 208.08q-26.833 0-42.018-15.601-15.081-15.705-15.081-43.162 0-28.185 14.041-44.306 14.041-16.121 38.585-16.121 22.777 0 35.985 13.833 13.208 13.833 13.208 38.065v13.208h-76.651q0.52002 16.745 9.0483 25.793 8.5283 8.9443 24.025 8.9443 10.192 0 18.929-1.8721 8.8403-1.9761 18.929-6.4482v19.865q-8.9443 4.2642-18.097 6.0322-9.1524 1.7681-20.905 1.7681zm-4.4722-100.68q-11.648 0-18.721 7.3843-6.9683 7.3843-8.3203 21.529h52.21q-0.20801-14.249-6.8643-21.529-6.6562-7.3843-18.305-7.3843z"/>
  <path d="m731.98 173.24q0 16.849-12.272 25.897-12.272 8.9443-35.153 8.9443-22.985 0-36.921-6.9683v-21.113q20.281 9.3604 37.753 9.3604 22.569 0 22.569-13.625 0-4.3682-2.4961-7.2803t-8.2163-6.0322q-5.7202-3.1201-15.913-7.0723-19.865-7.6963-26.937-15.393-6.9683-7.6963-6.9683-19.969 0-14.769 11.856-22.881 11.96-8.2163 32.449-8.2163 20.281 0 38.377 8.2163l-7.9043 18.409q-18.617-7.6963-31.305-7.6963-19.345 0-19.345 11.024 0 5.4082 4.9922 9.1523 5.0962 3.7441 22.049 10.296 14.249 5.5122 20.697 10.088 6.4482 4.5762 9.5684 10.608 3.1201 5.9282 3.1201 14.249z"/>
  <path d="m859.49 206h-24.545v-70.723q0-13.312-5.4082-19.865-5.3042-6.5522-16.953-6.5522-15.393 0-22.673 9.2564-7.1763 9.1523-7.1763 30.785v57.098h-24.441v-161.83h24.441v41.082q0 9.8804-1.248 21.113h1.56q4.9922-8.3203 13.833-12.896 8.9443-4.5762 20.801-4.5762 41.81 0 41.81 42.122v74.987z"/>
  <path d="m920.96 124.67h17.265q17.369 0 25.169-6.4482 7.8003-6.4482 7.8003-19.137 0-12.896-8.4243-18.513-8.4243-5.6162-25.377-5.6162h-16.433v49.714zm0 20.593v60.738h-24.857v-152.05h42.954q29.433 0 43.578 11.024t14.145 33.281q0 28.393-29.537 40.458l42.954 67.291h-28.289l-36.401-60.738h-24.545z"/>
  <path d="m1119.8 164.71q0 20.281-14.665 31.825-14.664 11.544-40.458 11.544t-42.226-8.0083v-23.505q10.4 4.8882 22.049 7.6963 11.752 2.8081 21.841 2.8081 14.769 0 21.737-5.6162 7.0722-5.6162 7.0722-15.081 0-8.5283-6.4482-14.457-6.4483-5.9282-26.625-14.041-20.801-8.4243-29.329-19.241-8.5283-10.816-8.5283-26.001 0-19.033 13.52-29.953t36.297-10.92q21.841 0 43.474 9.5684l-7.9043 20.281q-20.281-8.5283-36.193-8.5283-12.064 0-18.305 5.3042-6.2402 5.2002-6.2402 13.833 0 5.9282 2.4961 10.192 2.4961 4.1602 8.2163 7.9043t20.593 9.8804q16.745 6.9683 24.545 13 7.8003 6.0322 11.44 13.625 3.6402 7.5923 3.6402 17.889z"/>
  <path d="m1237.1 164.71q0 20.281-14.665 31.825-14.664 11.544-40.458 11.544t-42.226-8.0083v-23.505q10.4 4.8882 22.049 7.6963 11.752 2.8081 21.841 2.8081 14.768 0 21.737-5.6162 7.0722-5.6162 7.0722-15.081 0-8.5283-6.4482-14.457-6.4483-5.9282-26.625-14.041-20.801-8.4243-29.329-19.241-8.5283-10.816-8.5283-26.001 0-19.033 13.52-29.953t36.297-10.92q21.841 0 43.474 9.5684l-7.9043 20.281q-20.281-8.5283-36.193-8.5283-12.064 0-18.305 5.3042-6.2402 5.2002-6.2402 13.833 0 5.9282 2.4961 10.192 2.4961 4.1602 8.2163 7.9043t20.593 9.8804q16.745 6.9683 24.545 13 7.8003 6.0322 11.44 13.625 3.6402 7.5923 3.6402 17.889z"/>
 </g>
</svg>
