<svg width="684.14" height="452.58" data-name="Layer 1" version="1.1" viewBox="0 0 684.14 452.58" xmlns="http://www.w3.org/2000/svg">
 <path d="m545.97 450.03-268.35-122.5 138.17-302.67 268.35 122.5z" fill="#96c7f2"/>
 <g transform="translate(0,-100.23)" fill="#b7d9f8">
  <path d="m586.85 374.43-203.14-92.739a1.5859 1.5859 0 0 1 1.3172-2.8854l203.14 92.739a1.5859 1.5859 0 0 1-1.3172 2.8854z"/>
  <path d="m598.15 349.68-203.14-92.739a1.5859 1.5859 0 1 1 1.3172-2.8854l203.14 92.739a1.5859 1.5859 0 1 1-1.3172 2.8854z"/>
  <path d="m609.45 324.94-203.14-92.739a1.5859 1.5859 0 1 1 1.3172-2.8854l203.14 92.739a1.586 1.586 0 0 1-1.3172 2.8854z"/>
  <path d="m620.74 300.19-203.14-92.739a1.5859 1.5859 0 1 1 1.3172-2.8854l203.14 92.739a1.5859 1.5859 0 0 1-1.3172 2.8854z"/>
  <path d="m576.64 396.79-203.14-92.739a1.5859 1.5859 0 1 1 1.3172-2.8854l203.14 92.739a1.5859 1.5859 0 0 1-1.3172 2.8854z"/>
  <path d="m610.57 263.9-158.68-72.441a3.9649 3.9649 0 0 1-2.2298-4.7789 3.816 3.816 0 0 1 5.2003-2.2525l158.63 72.419a4.0006 4.0006 0 0 1 2.261 4.8501 3.8158 3.8158 0 0 1-5.1832 2.2033z"/>
 </g>
 <path d="m0 147.36 268.35-122.5 138.17 302.67-268.35 122.5z" fill="#96c7f2"/>
 <g transform="translate(0,-100.23)" fill="#b7d9f8">
  <path d="m97.297 374.43 203.14-92.739a1.5859 1.5859 0 1 0-1.3172-2.8854l-203.14 92.739a1.5859 1.5859 0 1 0 1.3173 2.8854z"/>
  <path d="m86.001 349.68 203.14-92.739a1.5859 1.5859 0 0 0-1.3173-2.8854l-203.14 92.739a1.5859 1.5859 0 1 0 1.3173 2.8854z"/>
  <path d="m74.705 324.94 203.14-92.739a1.5859 1.5859 0 0 0-1.3173-2.8854l-203.14 92.739a1.586 1.586 0 0 0 1.3173 2.8854z"/>
  <path d="m63.408 300.19 203.14-92.739a1.5859 1.5859 0 1 0-1.3173-2.8854l-203.14 92.739a1.5859 1.5859 0 0 0 1.3173 2.8854z"/>
  <path d="m107.51 396.79 203.14-92.739a1.5859 1.5859 0 0 0-1.3173-2.8854l-203.14 92.739a1.5859 1.5859 0 1 0 1.3173 2.8854z"/>
  <path d="m73.583 263.9 158.68-72.441a3.9649 3.9649 0 0 0 2.2298-4.7789 3.816 3.816 0 0 0-5.2003-2.2525l-158.63 72.419a4.0007 4.0007 0 0 0-2.261 4.8501 3.8158 3.8158 0 0 0 5.1832 2.2033z"/>
  <path d="m541.73 552.81h-401.26v-452.58h401.26z"/>
 </g>
 <path d="m541.73 452.58h-401.26v-452.58h401.26zm-399.1-2.1573h396.94v-448.27h-396.94z" fill="#96c7f2"/>
 <g transform="translate(0,-100.23)" fill="#96c7f2">
  <path d="m492.98 312.13h-303.76a2.1573 2.1573 0 1 1 0-4.3146h303.76a2.1573 2.1573 0 0 1 0 4.3146z"/>
  <path d="m492.98 275.13h-303.76a2.1573 2.1573 0 1 1 0-4.3146h303.76a2.1573 2.1573 0 0 1 0 4.3146z"/>
  <path d="m492.98 238.13h-303.76a2.1573 2.1573 0 1 1 0-4.3146h303.76a2.1573 2.1573 0 0 1 0 4.3146z"/>
  <path d="m492.98 201.13h-303.76a2.1573 2.1573 0 1 1 0-4.3146h303.76a2.1573 2.1573 0 0 1 0 4.3146z"/>
  <path d="m492.98 345.57h-303.76a2.1573 2.1573 0 1 1 0-4.3146h303.76a2.1573 2.1573 0 0 1 0 4.3146z"/>
  <path d="m492.98 511.57h-303.76a2.1573 2.1573 0 1 1 0-4.3146h303.76a2.1573 2.1573 0 0 1 0 4.3146z"/>
 </g>
 <path d="m420.21 376.71h-158.23a3.9934 3.9934 0 0 1-3.989-3.989v-93.077a3.9934 3.9934 0 0 1 3.989-3.989h158.23a3.9934 3.9934 0 0 1 3.989 3.989v93.077a3.9934 3.9934 0 0 1-3.989 3.989z" fill="#b7d9f8"/>
 <g fill="#96c7f2">
  <path d="m367.37 323.54a8.8014 8.8014 0 0 0-12.646-0.226l-44.53 44.531a6.2879 6.2879 0 0 1-8.8688 0.0133l-6.5951-6.5819a8.7801 8.7801 0 0 0-12.42 0l-12.764 12.778h143.1v-1.8216z"/>
  <path d="m420.21 376.71h-158.23a3.9934 3.9934 0 0 1-3.989-3.989v-93.077a3.9934 3.9934 0 0 1 3.989-3.989h158.23a3.9934 3.9934 0 0 1 3.989 3.989v93.077a3.9934 3.9934 0 0 1-3.989 3.989zm-158.23-98.396a1.3312 1.3312 0 0 0-1.3297 1.3297v93.077a1.3312 1.3312 0 0 0 1.3297 1.3297h158.23a1.3312 1.3312 0 0 0 1.3297-1.3297v-93.077a1.3312 1.3312 0 0 0-1.3297-1.3297z"/>
  <path d="m459.88 61.74h-237.28a5.3933 5.3933 0 0 1-5.4588-4.6538 5.1908 5.1908 0 0 1 5.1625-5.7249h237.2a5.4419 5.4419 0 0 1 5.5376 4.7244 5.1905 5.1905 0 0 1-5.1691 5.6544z"/>
 </g>
</svg>
